HIERARCHY
ROOT root
{
	OFFSET 0.000000 0.000000 0.000000
	CHANNELS 6 Xposition Yposition Zposition Zrotation Yrotation Xrotation
	JOINT lhip
	{
		OFFSET 0.058581 -0.082280 -0.017664
		CHANNELS 3 Zrotation Yrotation Xrotation
		JOINT lknee
		{
			OFFSET 0.043451 -0.386469 0.008037
			CHANNELS 3 Zrotation Yrotation Xrotation
			JOINT lankle
			{
				OFFSET -0.014790 -0.426874 -0.037428
				CHANNELS 3 Zrotation Yrotation Xrotation
				JOINT ltoe
				{
					OFFSET 0.041054 -0.060286 0.122042
					CHANNELS 3 Zrotation Yrotation Xrotation
					End Site
					{
						OFFSET 0.000000 0.000000 0.000000
					}
				}
			}
		}
	}
	JOINT rhip
	{
		OFFSET -0.060310 -0.090513 -0.013543
		CHANNELS 3 Zrotation Yrotation Xrotation
		JOINT rknee
		{
			OFFSET -0.043257 -0.383688 -0.004843
			CHANNELS 3 Zrotation Yrotation Xrotation
			JOINT rankle
			{
				OFFSET 0.019056 -0.420046 -0.034562
				CHANNELS 3 Zrotation Yrotation Xrotation
				JOINT rtoe
				{
					OFFSET -0.034840 -0.062106 0.130323
					CHANNELS 3 Zrotation Yrotation Xrotation
					End Site
					{
						OFFSET 0.000000 0.000000 0.000000
					}
				}
			}
		}
	}
	JOINT lowerback
	{
		OFFSET 0.004439 0.124404 -0.038385
		CHANNELS 3 Zrotation Yrotation Xrotation
		JOINT upperback
		{
			OFFSET 0.004488 0.137956 0.026820
			CHANNELS 3 Zrotation Yrotation Xrotation
			JOINT chest
			{
				OFFSET -0.002265 0.056032 0.002855
				CHANNELS 3 Zrotation Yrotation Xrotation
				JOINT lowerneck
				{
					OFFSET -0.013390 0.211636 -0.033468
					CHANNELS 3 Zrotation Yrotation Xrotation
					JOINT upperneck
					{
						OFFSET 0.010113 0.088937 0.050410
						CHANNELS 3 Zrotation Yrotation Xrotation
						End Site
						{
							OFFSET 0.000000 0.000000 0.000000
						}
					}
				}
				JOINT lclavicle
				{
					OFFSET 0.071702 0.114000 -0.018898
					CHANNELS 3 Zrotation Yrotation Xrotation
					JOINT lshoulder
					{
						OFFSET 0.122921 0.045205 -0.019046
						CHANNELS 3 Zrotation Yrotation Xrotation
						JOINT lelbow
						{
							OFFSET 0.255332 -0.015649 -0.022946
							CHANNELS 3 Zrotation Yrotation Xrotation
							JOINT lwrist
							{
								OFFSET 0.265709 0.012698 -0.007375
								CHANNELS 3 Zrotation Yrotation Xrotation
								End Site
								{
									OFFSET 0.000000 0.000000 0.000000
								}
							}
						}
					}
				}
				JOINT rclavicle
				{
					OFFSET -0.082954 0.112472 -0.023707
					CHANNELS 3 Zrotation Yrotation Xrotation
					JOINT rshoulder
					{
						OFFSET -0.113228 0.046853 -0.008472
						CHANNELS 3 Zrotation Yrotation Xrotation
						JOINT relbow
						{
							OFFSET -0.260127 -0.014369 -0.031269
							CHANNELS 3 Zrotation Yrotation Xrotation
							JOINT rwrist
							{
								OFFSET -0.269108 0.006794 -0.006027
								CHANNELS 3 Zrotation Yrotation Xrotation
								End Site
								{
									OFFSET 0.000000 0.000000 0.000000
								}
							}
						}
					}
				}
			}
		}
	}
}
MOTION
Frames: 7
Frame Time: 0.033333
1.898823 0.274049 0.909556 -147.198908 -1.156674 94.555399 16.056458 -2.254152 -16.109435 -15.916053 -15.208743 34.910006 -0.339889 -2.049539 -33.930327 0.000000 -0.000000 0.000000 -19.343932 1.541203 -21.904387 -0.170221 15.548688 40.585576 9.468658 3.069076 -23.110360 0.000000 -0.000000 0.000000 0.046922 2.188348 14.299506 2.388800 1.207481 -5.983134 -0.644269 -0.763765 -3.066686 5.828156 -4.688705 -19.991127 0.180240 -20.667397 6.097172 -26.722658 -6.156875 1.481623 -55.879097 -18.527108 25.162388 -27.206828 -83.518753 45.209194 14.415331 -19.307126 -24.041598 30.719498 8.180801 2.337478 55.104993 2.316854 27.846625 18.742950 66.357419 33.804187 12.042713 14.837187 -11.051180 
1.878834 0.255644 0.926076 -153.003446 -1.313939 95.048998 13.828616 -1.088664 -13.311318 -14.378934 -12.170426 30.362468 -0.179683 -0.837689 -31.665904 0.000000 -0.000000 0.000000 -18.679699 0.090910 -25.023008 -2.499588 9.663600 42.449958 8.620904 0.119536 -20.249779 0.000000 -0.000000 0.000000 -0.602555 1.086468 14.543869 2.567944 1.204552 -6.773803 0.084559 -0.985569 -2.903921 5.404773 -4.944297 -19.143868 0.463771 -19.660098 6.731096 -24.342079 -6.283449 1.708782 -54.829165 -19.594037 24.365290 -48.909155 -85.686745 65.889626 13.491544 -20.338931 -25.899287 29.517139 8.483863 1.989731 54.915168 3.042661 29.357299 29.013147 68.453147 47.596511 16.966992 16.162635 -5.338367 
1.857791 0.241773 0.947091 -159.819286 -0.893014 94.064553 11.347231 0.645609 -7.791003 -11.890235 -10.134552 24.171473 -0.298369 1.419825 -28.516595 0.000000 -0.000000 0.000000 -15.401273 -0.497205 -24.643909 -3.875098 1.880397 47.166784 7.881057 -3.572986 -19.681285 0.000000 -0.000000 0.000000 -0.983638 -1.151774 15.525527 2.926446 1.280249 -7.493720 0.629081 -0.672140 -2.723762 4.839100 -5.817188 -15.887507 1.134247 -18.405430 6.992190 -21.758867 -5.393540 2.443217 -53.218526 -18.211518 22.512334 -97.062418 -86.681601 112.437216 13.361467 -19.379167 -28.409217 26.732913 8.705575 1.086806 56.416211 2.821532 29.733924 36.106808 68.315691 56.565511 17.861080 15.106952 -2.843930 
1.841548 0.234373 0.960631 -165.220607 -0.891621 93.414932 9.261849 0.806895 -4.525626 -10.791141 -7.771862 20.925070 -0.235797 3.888779 -26.108917 0.000000 -0.000000 0.000000 -12.418274 -0.179666 -22.808610 -2.963532 -2.676982 51.892407 7.762019 -4.676702 -18.769695 0.000000 -0.000000 0.000000 -0.811280 -2.544694 14.776330 3.155950 0.861181 -7.443617 0.222739 -0.282006 -2.553069 4.288384 -6.783507 -12.049073 1.378551 -17.637825 6.997288 -20.247290 -3.464690 2.986049 -52.264204 -15.730226 21.432973 -123.059386 -86.015634 137.528260 13.152423 -18.316911 -29.745391 24.570085 7.993629 0.685529 58.169284 2.484411 29.205375 36.127433 67.376274 56.346765 15.803069 14.337210 -3.727583 
1.827344 0.226789 0.968350 -171.476158 -1.320961 93.434004 6.954456 0.529501 -3.339084 -10.393511 -3.973320 19.897745 0.048703 6.457608 -24.232015 0.000000 -0.000000 0.000000 -9.623603 0.899800 -21.073119 -1.078553 -6.394733 56.229298 8.537457 -3.547099 -16.630628 0.000000 -0.000000 0.000000 -0.673769 -2.920845 13.011641 3.086134 0.608383 -7.395333 -0.490765 0.171470 -2.097795 3.864229 -7.513244 -8.142402 1.296949 -17.367567 6.808603 -19.052315 -0.921910 3.101280 -51.809765 -12.919952 20.782406 -130.540140 -85.436744 144.491945 12.588046 -17.519685 -29.760249 22.899587 6.603657 0.522930 59.692823 2.225951 28.346272 33.078082 66.974799 52.153967 12.816638 13.312712 -6.041668 
1.815284 0.218523 0.970662 -178.657762 -2.003655 93.447679 4.851270 0.469760 -3.650789 -10.695861 0.591670 21.395003 0.173921 8.401662 -22.914745 0.000000 -0.000000 0.000000 -6.785208 1.370467 -18.745395 0.624700 -9.074003 59.092580 9.557769 -1.826536 -13.301470 0.000000 -0.000000 0.000000 -0.779552 -2.327692 11.541377 2.862961 0.765456 -7.317232 -1.147112 0.756696 -1.588373 3.478791 -8.192132 -4.785827 1.057299 -17.276156 6.474821 -18.734983 1.690265 2.954796 -51.162338 -10.212385 20.087228 -129.149167 -85.160687 142.814110 12.061146 -16.807365 -28.990115 22.052833 4.995776 0.351848 60.343714 2.151660 27.288649 29.021020 67.190149 46.423052 9.162874 12.218482 -9.116016 
1.804277 0.208172 0.967239 173.610568 -3.235440 94.073462 2.765697 0.115881 -6.267553 -11.196403 5.681164 25.572710 0.368245 9.362167 -22.179622 0.000000 -0.000000 0.000000 -4.784603 0.418282 -16.425664 1.382904 -10.546545 59.549510 9.971805 -0.703418 -8.553890 0.000000 -0.000000 0.000000 -1.294776 -0.575539 9.935472 2.478038 1.010642 -7.150473 -1.776040 1.180759 -1.068549 3.041424 -9.170680 -2.559062 0.863205 -17.118564 6.304560 -19.330111 4.289523 2.652198 -50.233974 -7.906012 19.334107 -123.867108 -85.270393 137.433891 11.055173 -16.469565 -28.453919 22.254611 3.048398 0.135269 60.189392 2.523879 26.071715 22.797323 67.828255 39.365158 7.717039 11.797519 -10.287840 
